HIERARCHY
ROOT Hips
{
 OFFSET 0.000000 0.000000 0.000000
 CHANNELS 6 Xposition Yposition Zposition Yrotation Xrotation Zrotation
 JOINT Chest
 {
  OFFSET 0.000000 10.080317 -0.001081
  CHANNELS 3 Yrotation Xrotation Zrotation
  JOINT Chest2
  {
   OFFSET 0.000000 11.096852 0.001963
   CHANNELS 3 Yrotation Xrotation Zrotation
   JOINT Chest3
   {
    OFFSET 0.000000 10.026525 0.000000
    CHANNELS 3 Yrotation Xrotation Zrotation
    JOINT Chest4
    {
     OFFSET 0.000000 10.026525 0.000000
     CHANNELS 3 Yrotation Xrotation Zrotation
     JOINT Neck
     {
      OFFSET 0.000000 14.108171 0.000000
      CHANNELS 3 Yrotation Xrotation Zrotation
      JOINT Head
      {
       OFFSET 0.000000 9.333493 0.004668
       CHANNELS 3 Yrotation Xrotation Zrotation
       End Site
       {
        OFFSET 0.000000 17.851786 0.002438
       }
      }
     }
     JOINT RightCollar
     {
      OFFSET -3.071622 7.873185 0.000000
      CHANNELS 3 Yrotation Xrotation Zrotation
      JOINT RightShoulder
      {
       OFFSET -14.378659 0.000000 0.000000
       CHANNELS 3 Yrotation Xrotation Zrotation
       JOINT RightElbow
       {
        OFFSET -30.778728 0.000000 0.000000
        CHANNELS 3 Yrotation Xrotation Zrotation
        JOINT RightWrist
        {
         OFFSET -25.164217 0.000000 0.000000
         CHANNELS 3 Yrotation Xrotation Zrotation
         End Site
         {
          OFFSET -18.796788 0.000000 0.000000
         }
        }
       }
      }
     }
     JOINT LeftCollar
     {
      OFFSET 3.071622 7.873185 0.000000
      CHANNELS 3 Yrotation Xrotation Zrotation
      JOINT LeftShoulder
      {
       OFFSET 14.378659 0.000000 0.000000
       CHANNELS 3 Yrotation Xrotation Zrotation
       JOINT LeftElbow
       {
        OFFSET 30.778728 0.000000 0.000000
        CHANNELS 3 Yrotation Xrotation Zrotation
        JOINT LeftWrist
        {
         OFFSET 25.164217 0.000000 0.000000
         CHANNELS 3 Yrotation Xrotation Zrotation
         End Site
         {
          OFFSET 18.796788 0.000000 0.000000
         }
        }
       }
      }
     }
    }
   }
  }
 }
 JOINT RightHip
 {
  OFFSET -8.194923 0.005295 0.000540
  CHANNELS 3 Yrotation Xrotation Zrotation
  JOINT RightKnee
  {
   OFFSET 0.000000 -42.473320 -0.000511
   CHANNELS 3 Yrotation Xrotation Zrotation
   JOINT RightAnkle
   {
    OFFSET 0.000000 -41.474259 -0.000865
    CHANNELS 3 Yrotation Xrotation Zrotation
    JOINT RightToe
    {
     OFFSET 0.000000 -7.354994 16.712725
     CHANNELS 3 Yrotation Xrotation Zrotation
     End Site
     {
      OFFSET 0.000000 -1.553903 6.764158
     }
    }
   }
  }
 }
 JOINT LeftHip
 {
  OFFSET 8.194923 0.005295 0.000540
  CHANNELS 3 Yrotation Xrotation Zrotation
  JOINT LeftKnee
  {
   OFFSET 0.000000 -42.473320 -0.000511
   CHANNELS 3 Yrotation Xrotation Zrotation
   JOINT LeftAnkle
   {
    OFFSET 0.000000 -41.474259 -0.000865
    CHANNELS 3 Yrotation Xrotation Zrotation
    JOINT LeftToe
    {
     OFFSET 0.000000 -7.354994 16.712725
     CHANNELS 3 Yrotation Xrotation Zrotation
     End Site
     {
      OFFSET 0.000000 -1.553903 6.764158
     }
    }
   }
  }
 }
}
MOTION
Frames: 18
Frame Time: 0.016667
0.0 0.0 0.0 0.0 0.0 0.0 15.237457 5.317759 2.173274 2.475142 2.346361 0.843837 2.475142 2.346361 0.843837 1.85286 1.763226 0.623294 -2.294892 20.372221 3.77031 -5.305765 1.889313 7.549691 11.679813 -12.29964 4.938015 17.229144 -41.913544 25.743204 74.075578 2.672786 10.72662 1.354856 0.832756 -3.630086 -13.835475 -16.342127 -1.627593 -16.82277 -54.475829 -56.652981 -93.147492 -13.033402 -41.771657 0.834733 12.178995 21.893392 0.0 10.0 -20.0 0.0 0.0 0.0 0.0 0.0 20.0 0.0 0.0 0.0 0.0 10.0 20.0 0.0 0.0 0.0 0.0 0.0 -20.0 0.0 0.0 0.0
0.0 0.0 0.0 0.0 0.0 0.0 12.848068000000001 5.336279 1.811983 2.247464 2.327889 0.77279 2.247464 2.327889 0.77279 1.682424 1.748789 0.570957 -1.640844 20.553806 3.64435 -4.06835 2.165822 7.116394 10.231366 -12.328872 5.374336 15.738111 -40.836354 29.32792 80.910021 2.205533 12.210221 0.825898 1.535459 -3.330924 -14.131638 -16.36181 -1.608131 -16.522474 -54.863218 -55.826967 -92.030278 -11.001602 -40.29105 0.207837 12.195709 22.544686 0.0 10.0 -20.0 0.0 0.0 0.0 0.0 0.0 20.0 0.0 0.0 0.0 0.0 10.0 20.0 0.0 0.0 0.0 0.0 0.0 -20.0 0.0 0.0 0.0
0.0 0.0 0.0 0.0 0.0 0.0 10.424382000000001 5.259801 1.534078 2.021374 2.310286 0.703091 2.021374 2.310286 0.703091 1.513168 1.735065 0.519609 -0.957772 20.770252 3.522064 -2.779493 2.513074 6.682602 8.798384 -12.339035 5.644517 14.110953 -39.728917 32.925676 87.294678 1.036481 13.789342 0.268055 2.009509 -3.19028 -14.490437 -16.382895 -1.614277 -16.197774 -55.242358 -54.894258 -90.668019 -8.874915 -38.854006 -0.363878 12.129636 23.068378 0.0 10.0 -20.0 0.0 0.0 0.0 0.0 0.0 20.0 0.0 0.0 0.0 0.0 10.0 20.0 0.0 0.0 0.0 0.0 0.0 -20.0 0.0 0.0 0.0
0.0 0.0 0.0 0.0 0.0 0.0 8.013916 5.330863 1.395122 1.812089 2.277718 0.635247 1.812089 2.277718 0.635247 1.356521 1.710191 0.469621 -0.261705 21.036832 3.412703 -1.47107 2.961371 6.270748 7.496914 -11.995788 6.015637 12.559348 -38.893935 36.132321 93.207305 -0.608204 15.680053 -8.6681e-2 2.385699 -2.97279 -14.977381 -16.256828 -1.600384 -15.72664 -55.710696 -53.858809 -88.983244 -6.73809 -37.570082 -0.796053 12.032229 22.968455 0.0 10.0 -20.0 0.0 0.0 0.0 0.0 0.0 20.0 0.0 0.0 0.0 0.0 10.0 20.0 0.0 0.0 0.0 0.0 0.0 -20.0 0.0 0.0 0.0
0.0 0.0 0.0 0.0 0.0 0.0 5.57099 5.340751 1.182983 1.618905 2.233854 0.574281 1.618905 2.233854 0.574281 1.211926 1.676927 0.42474 0.441344 21.350743 3.292731 -0.148316 3.504962 5.841751 6.58872 -11.414164 6.466514 11.091438 -38.215424 38.558353 98.657212 -2.157504 17.534743 -0.152796 2.959813 -2.841001 -15.376692 -15.91905 -1.691921 -15.032017 -56.32083 -52.962575 -87.170448 -4.609428 -36.710024 -1.1246 12.050619 22.291588 0.0 10.0 -20.0 0.0 0.0 0.0 0.0 0.0 20.0 0.0 0.0 0.0 0.0 10.0 20.0 0.0 0.0 0.0 0.0 0.0 -20.0 0.0 0.0 0.0
0.0 0.0 0.0 0.0 0.0 0.0 3.1290570000000004 5.298253 0.993816 1.44398 2.184841 0.521726 1.44398 2.184841 0.521726 1.080989 1.639875 0.386085 1.141168 21.68793 3.173156 1.16531 4.100256 5.420428 5.832616 -10.825716 6.831009 9.874564 -37.642234 40.376357 103.565084 -4.095813 19.435613 -0.157275 3.208253 -2.822522 -15.648792 -15.464066 -1.81474 -14.468026 -56.879123 -51.903828 -85.440246 -2.380128 -36.014196 -1.428858 12.100943 21.766868 0.0 10.0 -20.0 0.0 0.0 0.0 0.0 0.0 20.0 0.0 0.0 0.0 0.0 10.0 20.0 0.0 0.0 0.0 0.0 0.0 -20.0 0.0 0.0 0.0
0.0 0.0 0.0 0.0 0.0 0.0 0.749288 5.405261 0.871639 1.301812 2.15645 0.471824 1.301812 2.15645 0.471824 0.974579 1.618352 0.349233 1.803279 21.966113 3.062555 2.402473 4.595213 5.032549 5.172236 -10.444605 7.121249 9.114499 -37.04481 41.530867 107.654131 -6.394415 20.890068 -0.306444 3.419699 -2.826476 -15.900215 -15.006923 -1.910049 -14.457525 -57.199702 -50.400264 -83.879531 -3.547e-3 -35.178852 -1.705792 12.167992 21.570353 0.0 10.0 -20.0 0.0 0.0 0.0 0.0 0.0 20.0 0.0 0.0 0.0 0.0 10.0 20.0 0.0 0.0 0.0 0.0 0.0 -20.0 0.0 0.0 0.0
0.0 0.0 0.0 0.0 0.0 0.0 -1.5460320000000003 5.433474 0.711476 1.197551 2.149963 0.425931 1.197551 2.149963 0.425931 0.896559 1.613315 0.315198 2.401457 22.166862 2.951183 3.519524 4.954679 4.665476 4.644743 -10.231103 7.359377 8.766282 -36.508582 42.322312 111.015519 -8.758627 21.97328 -0.44326 3.694363 -2.962279 -16.140407 -14.63075 -1.950826 -14.200244 -57.513778 -49.136049 -82.251986 2.135189 -34.639217 -2.006232 12.19011 21.107291 0.0 10.0 -20.0 0.0 0.0 0.0 0.0 0.0 20.0 0.0 0.0 0.0 0.0 10.0 20.0 0.0 0.0 0.0 0.0 0.0 -20.0 0.0 0.0 0.0
0.0 0.0 0.0 0.0 0.0 0.0 -3.732792 5.437651 0.562482 1.123213 2.146468 0.383794 1.123213 2.146468 0.383794 0.840963 1.610564 0.283866 2.94201 22.321205 2.811828 4.537418 5.234924 4.266444 4.294008 -10.060912 7.523565 8.759318 -36.181382 42.836649 113.59685 -10.725148 22.674031 -0.421308 3.740952 -3.014979 -16.296771 -14.265028 -1.980802 -14.009614 -57.685104 -47.963545 -80.663535 3.998147 -34.176599 -2.217837 12.163321 20.640983 0.0 10.0 -20.0 0.0 0.0 0.0 0.0 0.0 20.0 0.0 0.0 0.0 0.0 10.0 20.0 0.0 0.0 0.0 0.0 0.0 -20.0 0.0 0.0 0.0
0.0 0.0 0.0 0.0 0.0 0.0 -5.751425000000001 5.375348 0.392206 1.075146 2.140824 0.341585 1.075146 2.140824 0.341585 0.805069 1.606225 0.252392 3.422945 22.442197 2.677046 5.444525 5.458872 3.893761 4.101841 -9.983971 7.728729 9.015954 -35.979973 43.047496 115.551268 -12.407223 23.129278 -0.372116 3.85734 -3.083839 -16.33233 -13.945006 -1.984911 -14.149486 -57.5945 -46.832676 -79.180822 5.641044 -33.515198 -2.390664 12.114041 20.196074 0.0 10.0 -20.0 0.0 0.0 0.0 0.0 0.0 20.0 0.0 0.0 0.0 0.0 10.0 20.0 0.0 0.0 0.0 0.0 0.0 -20.0 0.0 0.0 0.0
0.0 0.0 0.0 0.0 0.0 0.0 -7.558389000000002 5.33258 0.290003 1.054698 2.13623 0.304998 1.054698 2.13623 0.304998 0.789865 1.602705 0.225035 3.806025 22.531134 2.568077 6.166663 5.626771 3.595171 4.047102 -9.971584 7.853234 9.287884 -35.980172 43.029286 116.810434 -13.88595 23.406466 -0.345845 3.885624 -3.169941 -16.375523 -13.659925 -2.031925 -14.378407 -57.365453 -45.793787 -77.969985 7.179275 -32.866698 -2.498338 12.096131 19.936383 0.0 10.0 -20.0 0.0 0.0 0.0 0.0 0.0 20.0 0.0 0.0 0.0 0.0 10.0 20.0 0.0 0.0 0.0 0.0 0.0 -20.0 0.0 0.0 0.0
0.0 0.0 0.0 0.0 0.0 0.0 -9.140986000000002 5.33099 0.183248 1.05887 2.130519 0.263645 1.05887 2.130519 0.263645 0.793142 1.598352 0.194019 4.06942 22.609914 2.526613 6.653795 5.775506 3.451532 4.014861 -10.038056 7.977367 9.483648 -36.070227 43.059383 117.46614 -15.082975 23.675498 -0.268817 3.927688 -3.257737 -16.380174 -13.344214 -2.063613 -14.301854 -57.246941 -45.160057 -76.983652 8.314677 -32.491139 -2.598173 12.042532 19.820063 0.0 10.0 -20.0 0.0 0.0 0.0 0.0 0.0 20.0 0.0 0.0 0.0 0.0 10.0 20.0 0.0 0.0 0.0 0.0 0.0 -20.0 0.0 0.0 0.0
0.0 0.0 0.0 0.0 0.0 0.0 -10.510349000000001 5.348888 0.122734 1.070949 2.12692 0.222422 1.070949 2.12692 0.222422 0.802346 1.595586 0.163069 4.239045 22.677425 2.529228 6.959448 5.901942 3.412873 4.083406 -10.059304 8.09308 9.698025 -36.189441 43.054194 117.688267 -15.831959 23.852511 -0.22129 3.970407 -3.378753 -16.354488 -13.009615 -2.127921 -13.842805 -57.257698 -44.972956 -76.168708 8.956674 -32.433515 -2.683603 11.960025 19.752076 0.0 10.0 -20.0 0.0 0.0 0.0 0.0 0.0 20.0 0.0 0.0 0.0 0.0 10.0 20.0 0.0 0.0 0.0 0.0 0.0 -20.0 0.0 0.0 0.0
0.0 0.0 0.0 0.0 0.0 0.0 -11.643751000000002 5.364955 9.8457e-2 1.084566 2.13876 0.185191 1.084566 2.13876 0.185191 0.812682 1.604405 0.13508 4.34077 22.734173 2.571529 7.131725 6.006577 3.463891 4.204578 -10.127025 8.173485 9.989123 -36.222337 42.982617 117.677132 -15.962384 23.839115 -0.223229 4.050975 -3.449833 -16.285077 -12.756411 -2.2088 -13.405271 -57.253653 -44.963612 -75.608059 9.348038 -32.410395 -2.759018 11.89793 19.741185 0.0 10.0 -20.0 0.0 0.0 0.0 0.0 0.0 20.0 0.0 0.0 0.0 0.0 10.0 20.0 0.0 0.0 0.0 0.0 0.0 -20.0 0.0 0.0 0.0
0.0 0.0 0.0 0.0 0.0 0.0 -12.538746000000003 5.360951 0.106737 1.092114 2.151943 0.151804 1.092114 2.151943 0.151804 0.818455 1.614235 0.109993 4.382369 22.801563 2.652678 7.18516 6.129012 3.601588 4.345719 -10.181415 8.237936 10.344352 -36.133579 42.832817 117.383206 -15.89155 23.724891 -0.209633 4.043466 -3.382601 -16.198204 -12.502041 -2.29725 -13.104153 -57.228194 -45.005588 -75.35455 9.689559 -32.378491 -2.756788 11.85182 19.747393 0.0 10.0 -20.0 0.0 0.0 0.0 0.0 0.0 20.0 0.0 0.0 0.0 0.0 10.0 20.0 0.0 0.0 0.0 0.0 0.0 -20.0 0.0 0.0 0.0
0.0 0.0 0.0 0.0 0.0 0.0 -13.202068999999998 5.453087 0.116813 1.092439 2.171996 0.133641 1.092439 2.171996 0.133641 0.818756 1.629242 9.6335e-2 4.356967 22.856236 2.75545 7.112024 6.226633 3.795673 4.457405 -10.262959 8.23956 10.61346 -36.057478 42.746822 116.945367 -15.714005 23.696838 -0.168491 3.988655 -3.312815 -16.122413 -12.298234 -2.395431 -12.86747 -57.149665 -45.16667 -75.365211 9.974292 -32.303836 -2.705474 11.845833 19.660771 0.0 10.0 -20.0 0.0 0.0 0.0 0.0 0.0 20.0 0.0 0.0 0.0 0.0 10.0 20.0 0.0 0.0 0.0 0.0 0.0 -20.0 0.0 0.0 0.0
0.0 0.0 0.0 0.0 0.0 0.0 -13.679217000000001 5.43044 0.119926 1.084092 2.184935 0.125335 1.084092 2.184935 0.125335 0.812522 1.63893 9.0113e-2 4.278117 22.916298 2.878434 6.937367 6.333585 4.040547 4.552616 -10.266559 8.219599 10.884669 -36.002672 42.616942 116.572956 -15.376263 23.677684 -0.166472 4.030483 -3.297186 -16.049624 -12.120094 -2.481324 -12.696001 -57.048191 -45.368148 -75.422954 10.068373 -32.269242 -2.630933 11.805288 19.558894 0.0 10.0 -20.0 0.0 0.0 0.0 0.0 0.0 20.0 0.0 0.0 0.0 0.0 10.0 20.0 0.0 0.0 0.0 0.0 0.0 -20.0 0.0 0.0 0.0
0.0 0.0 0.0 0.0 0.0 0.0 -13.993987999999998 5.58643 0.168807 1.072197 2.199696 0.129177 1.072197 2.199696 0.129177 0.803584 1.650005 9.301e-2 4.149504 22.979551 2.9876 6.677065 6.447364 4.273737 4.631818 -10.298736 8.156979 11.072315 -35.908695 42.502351 116.314022 -15.076711 23.665023 -0.238736 4.074304 -3.171755 -15.997618 -11.945596 -2.575207 -12.728737 -56.97531 -45.462856 -75.52434 10.050732 -32.247357 -2.585626 11.799465 19.521928 0.0 10.0 -20.0 0.0 0.0 0.0 0.0 0.0 20.0 0.0 0.0 0.0 0.0 10.0 20.0 0.0 0.0 0.0 0.0 0.0 -20.0 0.0 0.0 0.0
